<?xml version="1.0" encoding="UTF-8"?>
<svg id="mammoth-3D_x5F_Logo_x5F_RED_x5F_Black_xA0_Image" xmlns="http://www.w3.org/2000/svg" version="1.1" viewBox="0 0 283.46 181.32">
  <!-- Generator: Adobe Illustrator 29.4.0, SVG Export Plug-In . SVG Version: 2.1.0 Build 152)  -->
  <defs>
    <style>
      .st0 {
        fill: #100807;
      }

      .st1 {
        fill: #0b0706;
      }

      .st2 {
        fill: #cc2127;
      }

      .st3 {
        fill: #0f0807;
      }

      .st4 {
        fill: #cd2127;
      }

      .st5 {
        fill: #393737;
      }

      .st6 {
        fill: #070606;
      }
    </style>
  </defs>
  <path class="st6" d="M0,181.13V0h283.46v181.13H0ZM199.94,74.61c-.27.13-.57.43-.76.66-.59.73-1.14,1.75-1.7,2.46-3.67,4.64-7.46,7.53-12.94,9.35-6.68,2.22-12.98,1.44-19.46-.76-1.61-.54-3.27-1.03-4.72-1.89-.05-.03-.15.03-.19,0-.29-.19-.56-.63-.85-.85-.17-2.24.23-4.79,0-6.99-.03-.24-.32-1.04-.38-1.32-.08-.38-.09-.97-.19-1.32-.09-.33-.56-1.14-.76-1.51-1.74-3.33-4.21-5.4-7.84-6.33-.23-.06-.95-.35-1.13-.38-.48-.06-1.05.07-1.51,0-.07-.01-.29-.3-.76-.19-.85.2-1.79.17-2.65.38-.4.1-1.29.39-1.7.57-3.44,1.43-6.03,4.25-7.09,7.84-.2.67-.38,1.39-.57,2.08v25.5l-.85.85h-10.77l-.85-.85v-26.44c2.18-18.85,23.59-28.98,39.4-17.47,4.62,3.36,7.73,7.96,9.17,13.32.36,1.34.83,2.93.94,4.34.16,2.01-.12,4.2,0,6.23.46.78.77,1.19,1.8,1.04.07-.01.12-.17.19-.19,3.25-.66,6.47-1.57,9.64-2.46.24-.07.45-.16.57-.19.16-.04.41.04.57,0s.63-.71.85-.85c-.06-1.31.08-2.67,0-3.97-.23-3.76-1.21-7.34-2.46-10.77-4.47-12.28-15.11-21.23-27.5-24.08-6.77-1.56-14.37-1.02-20.79,1.13-2.15.72-4.23,1.78-6.24,2.83-.21.11-.84.54-.94.57-.26.06-1.02.03-1.32,0-6.95-.75-13.41.32-19.46,3.02s-11.38,6.9-15.4,12.37c-4.69,6.38-6.96,13.22-7.56,20.78v34.19l1.04,1.04h11.53l1.04-.85v-33.81c.6-7.24,4.09-14.1,10.11-18.6.57-.43,1.24-.78,1.89-1.13.13-.07.28-.35.38-.38.16-.05.93-.04,1.13,0,.07.01.17.29.47.19l.38,1.23c-.29.15-.13.41-.19.57-.03.08-.16.11-.19.19-1.38,3.7-2.22,7.38-2.65,11.33v40.42l1.04.85h48.57l1.04-1.04v-15.49l.66-.85c.42.05.93-.07,1.32,0,.07.01.11.17.19.19,2.02.5,4.49.99,6.61,1.13,5.58.37,10.27-.84,15.12-3.02,7.25-3.26,13.63-11.07,15.97-18.42.23-.73.67-2.14.76-2.83.05-.44-.04-.96,0-1.42ZM183.02,101.81c-.07.01-.12.17-.19.19-3,.6-5.95,1.48-8.88,2.27-.3.08-.8.08-1.13.19l-1.04,1.04v10.01l1.04.85h11.34l1.04-.85v-12.84c-.18-.17-.4-.78-.66-.85-.2-.06-1.25-.04-1.51,0ZM178.39,126.93h-5.1v21.63c0,.06.18.12.19.19.13.71.15,1.02.38,1.7,1.05,3.15,3.61,5.67,6.9,6.52.23.06.95.35,1.13.38.5.06,1.09-.04,1.61,0v-5.1c-.35.14-.59-.18-.66-.19-.4-.07-.93-.03-1.32-.19-.14-.06-.81-.47-.94-.57-.28-.21-1.03-.95-1.23-1.23-.03-.04.03-.14,0-.19-.09-.13-.35-.29-.38-.38-.04-.12.04-.28,0-.38-.06-.12-.36-.5-.38-.57-.06-.27.04-.65,0-.94-.01-.07-.19-.13-.19-.19v-5.57h5.1v-4.34h-4.82l-.28-.28v-10.29ZM190.68,126.93h-5.29v30.41h5.29v-10.86c.26-.35.34-.93.57-1.32.06-.11.32-.5.38-.57.44-.59,1.1-.96,1.61-1.42l1.51-.57h2.08l1.7.76c.86.85,1.56,1.38,1.98,2.55.03.08.17.12.19.19.04.16-.04.4,0,.57.02.07.19.13.19.19v10.48h5.1v-11.62c0-.22-.52-1.09-.38-1.51-2.25-5.34-7.56-8.05-12.94-6.33-.37.12-.99.24-1.32.38-.16.07-.45.34-.66.38v-11.71ZM233.39,143.93h3.12c.06,0,.12.18.19.19.29.04.66-.05.94,0,.07.01.12.17.19.19.44.1.9.1,1.32.38.16.1.95.9,1.04,1.04.02.04-.03.13,0,.19.04.08.16.12.19.19.04.1-.03.26,0,.38.02.08.17.12.19.19.05.22-.04.52,0,.76.01.07.18.12.19.19.04.29.04.85,0,1.13-.01.07-.17.12-.19.19-.07.36-.09.77-.19,1.13l-1.42,1.61c-1.35.67-2.61,1.17-4.16.94-.07-.01-.12-.17-.19-.19-1.35-.27-2.53-.69-3.59-1.51-.33-.26-.62-.67-.94-.94l-3.87,3.49,1.23,1.42c3.54,2.6,8.33,3.46,12.66,2.46.35-.08.89-.4,1.32-.38,4.26-1.91,6.92-6.36,5.2-10.86-.9-1.98-2.52-3.21-4.25-4.25-.23-.14-.48-.27-.66-.47l1.8-1.04c2.33-1.83,2.52-4.27,2.36-7.08-1.64-4.75-6.74-6.83-11.62-6.33-.07,0-.12.18-.19.19-.53.08-1.19.04-1.7.19-.62.18-1.23.57-1.89.76-.1.03-.25.3-.38.38-1.3.73-2.44,1.44-3.31,2.74-.03.04-.09.35-.19.47.42-.08.57.38.85.57.75.52,1.7,1,2.46,1.51.13.09.29.35.38.38.53.15,1.08-.81,1.51-1.13.2-.15.71-.33.94-.57,1.25-.39,2.53-.44,3.97-.38l1.7.76c.73.61,1.07,1.11,1.42,1.98.03.08.17.12.19.19.07.31.06,1.93,0,2.27,0,.06-.32.27-.19.57l-1.23,1.42c-.54.25-.99.42-1.51.57-.08.02-.12.17-.19.19-.22.05-.52-.04-.76,0-.07.01-.12.18-.19.19-.79.1-1.74-.07-2.55,0v3.78ZM248.88,157.52c2.92-.09,5.87.12,8.79,0,.07,0,.12-.19.19-.19,1.36-.06,2.7.09,3.97-.19,4.94-1.09,9.73-5.33,11.24-10.29.24-.8.25-1.6.38-2.46.01-.07.18-.12.19-.19.19-1.8-.04-3.69-.38-5.29-.83-3.85-2.45-6.3-5.57-8.78-2.14-1.7-3.45-2.28-6.05-2.83-.21-.04-1.21-.38-1.32-.38h-11.43v30.6ZM48,157.34v-10.86c0-.06-.18-.12-.19-.19-.12-.79-.13-1.52-.38-2.27-2.41-5.28-7.34-7.73-12.76-6.14-1.18.35-2.31.81-3.21,1.51-.39.31-.82,1.09-1.32.94-.16-.05-.86-.93-1.13-1.13-2.83-1.88-6.53-2.45-9.64-1.13-2.79.91-5.55,3.76-6.33,6.71-.18.68-.11,1.35-.19,2.08,0,.07-.19.13-.19.19v10.29h5.29v-10.67c0-.06.17-.11.19-.19.04-.17-.04-.41,0-.57.02-.09.31-.44.38-.57.15-.28.21-.32.38-.57.03-.04-.03-.15,0-.19.44-.59,1.1-.96,1.61-1.42l1.51-.57c.93,0,1.82-.06,2.65.19.09.03.25.31.57.19.94.54,1.7,1.31,2.36,2.17l.19.38c-.11.3.38,1.05.38,1.13v10.67h5.29v-12.56c.49-.39.93-1.06,1.42-1.42.04-.03.14.03.19,0,.13-.09.29-.35.38-.38.36-.1.88-.1,1.13-.38h2.27c.15.29.41.13.57.19.79.29,2.04,1.28,2.55,1.98.03.04-.03.14,0,.19.09.13.35.29.38.38.08.26.12.67.19.94.02.08.19.13.19.19v10.86h5.29ZM111.87,157.34v-10.1c0-.06-.18-.12-.19-.19-.06-.6-.09-.98-.19-1.51-.16-.9-.25-1.67-.76-2.46-2.4-4.8-7.8-6.74-12.76-5.19-.82.45-1.54.81-2.27,1.32-.04.03-.15-.03-.19,0-.32.24-.64.76-.94.94-.06.03-.28-.02-.38.19h-.19c-.84-.9-1.86-1.62-3.02-2.08-2.13-.98-4.72-1.17-6.99-.57-3.04.81-6.24,3.95-7.09,6.89-.12.43-.11,1.07-.19,1.51-.01.07-.19.13-.19.19v11.05h5.29v-11.05c0-.06.17-.11.19-.19.03-.12-.04-.28,0-.38.11-.28.4-.52.57-.76.03-.04-.03-.15,0-.19.53-.71,1.75-1.69,2.55-1.98.16-.06.42.1.57-.19.96.04,2-.12,2.83.19.77.28,2.27,1.47,2.74,2.17.05.07.16.44.19.57.33.33.29.9.38,1.32.01.07.19.13.19.19v10.29h5.1v-12.37c.42-.45.69-1.01,1.23-1.42.04-.03.14.03.19,0,.29-.2.81-.67,1.13-.76.16-.04.4.04.57,0,.07-.02.12-.18.19-.19.44-.06,1.64-.06,2.08,0,.07.01.11.17.19.19.17.04.41-.04.57,0,.34.09.85.56,1.13.76.68.48.75.55,1.23,1.23.26.37.38.44.57.94.03.08.17.12.19.19.04.16-.04.4,0,.57.02.07.19.13.19.19v10.67h5.29ZM148.91,157.34v-11.05c0-.06-.18-.12-.19-.19-.13-.73-.17-1.39-.38-2.08-2.15-5.05-7.39-7.7-12.57-6.33-.93.25-2.69,1.15-3.4,1.7-.33.26-.62.67-.94.94h-.19l-1.89-1.51c-2.79-1.57-6.17-1.98-9.07-.76-2.68.85-5.16,3.48-6.14,6.14-.35.94-.28,1.98-.38,3.02,0,.07-.19.13-.19.19v9.92h5.29v-10.67c0-.08.48-.84.38-1.13.56-1,1.25-1.73,2.17-2.36l1.51-.57c.93,0,1.82-.06,2.65.19.09.03.25.31.57.19,1.08.6,1.92,1.41,2.55,2.55-.11.3.38,1.05.38,1.13v10.67h5.29v-12.56c.49-.39.93-1.06,1.42-1.42.04-.03.14.03.19,0,.13-.09.29-.35.38-.38.36-.1.88-.1,1.13-.38h2.27c.15.29.41.13.57.19.81.3,2.02,1.27,2.55,1.98.03.04-.03.14,0,.19.16.23.45.47.57.76.04.1-.03.26,0,.38.02.08.19.13.19.19v11.05h5.29ZM171.39,147.66c0-5.7-4.62-10.31-10.32-10.31s-10.32,4.62-10.32,10.31,4.62,10.31,10.32,10.31,10.32-4.62,10.32-10.31ZM74.65,157.34c-.22-.24-.13-.48-.19-.66-.71-2.13-1.68-4.29-2.46-6.42-.87-2.37-1.59-4.89-2.65-7.18-.25-.55-.76-1.43-1.13-1.89-1.49-1.85-3.72-3.05-5.95-3.49-.07-.01-.12-.18-.19-.19-1.03-.15-3.41-.04-4.35.19-.21.05-.51.12-.76.19-.45.12-1.41.67-1.89.94-1.88,1.06-3.38,2.56-4.25,4.63-1.02,2.11-1.26,4.91-.57,7.18.21.68.57,1.42.94,2.08,1.34,2.37,3.27,4.06,5.95,4.82.08.02.12.17.19.19.22.05.52-.04.76,0,.07.01.12.18.19.19.83.1,2.95.1,3.78,0,.07,0,.12-.18.19-.19.59-.11,1.28-.14,1.89-.38.82-.32,1.54-1.01,2.27-1.32l1.51-1.51c.21,0,.39.84.47,1.04.03.08.16.11.19.19.08.2.15.7.19.94l.47.66h5.39ZM222.61,144.3h-11.15v6.04h11.15v-6.04Z"/>
  <rect class="st5" y="181.13" width="283.46" height=".19"/>
  <g>
    <path class="st2" d="M248.88,157.52v-30.6h11.43c.11,0,1.11.33,1.32.38,2.6.56,3.91,1.13,6.05,2.83,3.12,2.48,4.75,4.93,5.57,8.78.34,1.59.56,3.48.38,5.29,0,.07-.18.12-.19.19-.13.86-.13,1.65-.38,2.46-1.51,4.97-6.3,9.2-11.24,10.29-1.27.28-2.61.13-3.97.19-.07,0-.12.19-.19.19-2.92.12-5.87-.09-8.79,0ZM254.17,152.24h5.57c.06,0,.12-.18.19-.19.71-.13,1.02-.15,1.7-.38,3.41-1.14,5.82-3.76,6.52-7.27.01-.07.18-.12.19-.19.06-.41-.05-.9,0-1.32,0-.07.18-.12.19-.19.09-.57-.17-.91-.19-1.13-.08-.73,0-1.4-.19-2.08-.77-2.87-3.24-5.51-5.95-6.71-.54-.24-1.11-.26-1.7-.38-.66-.13-1-.12-1.7-.19-.07,0-.13-.19-.19-.19h-4.44v20.21Z"/>
    <path class="st4" d="M48,157.34h-5.29v-10.86c0-.06-.17-.11-.19-.19-.07-.27-.11-.68-.19-.94-.03-.09-.29-.25-.38-.38-.03-.05.03-.15,0-.19-.51-.7-1.76-1.69-2.55-1.98-.16-.06-.42.1-.57-.19h-2.27c-.25.27-.78.27-1.13.38-.09.03-.25.29-.38.38-.05.03-.15-.03-.19,0-.49.35-.93,1.02-1.42,1.42v12.56h-5.29v-10.67c0-.08-.48-.84-.38-1.13l-.19-.38c-.66-.86-1.42-1.63-2.36-2.17-.32.12-.47-.16-.57-.19-.83-.25-1.71-.19-2.65-.19l-1.51.57c-.51.45-1.16.83-1.61,1.42-.03.04.03.14,0,.19-.17.24-.23.28-.38.57-.07.13-.35.48-.38.57-.04.16.04.4,0,.57-.02.07-.19.13-.19.19v10.67h-5.29v-10.29c0-.06.18-.12.19-.19.08-.73,0-1.4.19-2.08.78-2.95,3.54-5.8,6.33-6.71,3.11-1.32,6.81-.74,9.64,1.13.27.2.97,1.09,1.13,1.13.5.14.93-.64,1.32-.94.9-.7,2.03-1.16,3.21-1.51,5.42-1.59,10.34.86,12.76,6.14.25.75.26,1.47.38,2.27.01.07.19.13.19.19v10.86Z"/>
    <path class="st4" d="M148.91,157.34h-5.29v-11.05c0-.06-.17-.11-.19-.19-.03-.12.04-.28,0-.38-.11-.29-.41-.53-.57-.76-.03-.04.03-.15,0-.19-.54-.71-1.74-1.68-2.55-1.98-.16-.06-.42.1-.57-.19h-2.27c-.25.27-.78.27-1.13.38-.09.03-.25.29-.38.38-.05.03-.15-.03-.19,0-.49.35-.93,1.02-1.42,1.42v12.56h-5.29v-10.67c0-.08-.48-.84-.38-1.13-.63-1.14-1.47-1.95-2.55-2.55-.32.12-.47-.16-.57-.19-.83-.25-1.71-.19-2.65-.19l-1.51.57c-.92.63-1.61,1.36-2.17,2.36.11.3-.38,1.05-.38,1.13v10.67h-5.29v-9.92c0-.06.18-.12.19-.19.1-1.04.03-2.08.38-3.02.98-2.66,3.47-5.29,6.14-6.14,2.9-1.22,6.29-.81,9.07.76l1.89,1.51h.19c.33-.28.61-.69.94-.94.71-.55,2.47-1.45,3.4-1.7,5.17-1.38,10.42,1.28,12.57,6.33.21.69.25,1.35.38,2.08.01.07.19.13.19.19v11.05Z"/>
    <path class="st4" d="M111.87,157.34h-5.29v-10.67c0-.06-.17-.11-.19-.19-.04-.17.04-.41,0-.57-.02-.07-.16-.11-.19-.19-.18-.5-.31-.57-.57-.94-.48-.68-.55-.75-1.23-1.23-.28-.2-.79-.66-1.13-.76-.16-.04-.4.04-.57,0-.07-.02-.12-.18-.19-.19-.44-.06-1.64-.06-2.08,0-.07.01-.11.17-.19.19-.17.04-.41-.04-.57,0-.33.09-.84.55-1.13.76-.04.03-.15-.03-.19,0-.54.4-.81.96-1.23,1.42v12.37h-5.1v-10.29c0-.06-.17-.11-.19-.19-.08-.42-.05-.99-.38-1.32-.03-.13-.14-.5-.19-.57-.47-.7-1.97-1.89-2.74-2.17-.84-.31-1.88-.15-2.83-.19-.15.29-.41.13-.57.19-.8.3-2.02,1.27-2.55,1.98-.03.04.03.14,0,.19-.16.23-.45.47-.57.76-.04.1.03.26,0,.38-.02.08-.19.13-.19.19v11.05h-5.29v-11.05c0-.06.18-.12.19-.19.08-.44.07-1.09.19-1.51.84-2.95,4.05-6.09,7.09-6.89,2.27-.6,4.87-.41,6.99.57,1.16.46,2.18,1.18,3.02,2.08h.19c.09-.21.32-.16.38-.19.3-.18.63-.71.94-.94.04-.03.14.03.19,0,.73-.51,1.45-.87,2.27-1.32,4.95-1.55,10.35.4,12.76,5.19.51.79.6,1.56.76,2.46.09.53.13.91.19,1.51,0,.07.19.13.19.19v10.1Z"/>
    <path class="st2" d="M233.39,143.93v-3.78c.81-.07,1.76.1,2.55,0,.07,0,.12-.18.19-.19.23-.04.53.05.76,0,.07-.01.11-.17.19-.19.52-.15.97-.32,1.51-.57l1.23-1.42c-.13-.3.18-.51.19-.57.06-.33.07-1.96,0-2.27-.02-.07-.16-.11-.19-.19-.35-.87-.68-1.37-1.42-1.98l-1.7-.76c-1.44-.06-2.71,0-3.97.38-.23.24-.75.42-.94.57-.43.32-.99,1.28-1.51,1.13-.09-.03-.25-.29-.38-.38-.76-.52-1.7-.99-2.46-1.51-.28-.19-.43-.65-.85-.57.1-.13.16-.43.19-.47.87-1.3,2.01-2.01,3.31-2.74.13-.07.28-.35.38-.38.66-.19,1.27-.58,1.89-.76.51-.15,1.17-.11,1.7-.19.07-.01.12-.18.19-.19,4.88-.5,9.98,1.57,11.62,6.33.16,2.81-.04,5.25-2.36,7.08l-1.8,1.04c.18.21.43.33.66.47,1.74,1.04,3.35,2.27,4.25,4.25,1.72,4.5-.93,8.95-5.2,10.86-.43-.02-.97.3-1.32.38-4.33,1-9.12.14-12.66-2.46l-1.23-1.42,3.87-3.49c.33.28.61.69.94.94,1.06.82,2.24,1.24,3.59,1.51.07.01.12.18.19.19,1.55.23,2.81-.28,4.16-.94l1.42-1.61c.1-.36.12-.77.19-1.13.01-.07.18-.12.19-.19.04-.28.04-.85,0-1.13,0-.07-.18-.12-.19-.19-.04-.23.05-.53,0-.76-.01-.07-.17-.11-.19-.19-.03-.12.04-.28,0-.38-.03-.07-.15-.11-.19-.19-.03-.06.02-.15,0-.19-.09-.14-.88-.94-1.04-1.04-.42-.28-.88-.28-1.32-.38-.07-.02-.12-.18-.19-.19-.29-.05-.65.04-.94,0-.07-.01-.13-.19-.19-.19h-3.12Z"/>
    <path class="st2" d="M190.68,126.93v11.71c.21-.04.5-.31.66-.38.34-.14.96-.26,1.32-.38,5.39-1.72,10.69.99,12.94,6.33-.14.42.38,1.29.38,1.51v11.62h-5.1v-10.48c0-.06-.17-.11-.19-.19-.04-.17.04-.41,0-.57-.02-.07-.16-.11-.19-.19-.42-1.17-1.12-1.7-1.98-2.55l-1.7-.76h-2.08l-1.51.57c-.51.45-1.16.83-1.61,1.42-.05.07-.32.46-.38.57-.23.4-.31.98-.57,1.32v10.86h-5.29v-30.41h5.29Z"/>
    <path class="st4" d="M74.65,157.34h-5.39l-.47-.66c-.04-.25-.11-.74-.19-.94-.03-.08-.16-.11-.19-.19-.08-.2-.26-1.04-.47-1.04l-1.51,1.51c-.73.32-1.45,1-2.27,1.32-.61.24-1.3.27-1.89.38-.07.01-.12.18-.19.19-.83.1-2.95.1-3.78,0-.07,0-.12-.18-.19-.19-.23-.04-.53.05-.76,0-.07-.01-.11-.17-.19-.19-2.68-.76-4.61-2.45-5.95-4.82-.37-.66-.74-1.4-.94-2.08-.69-2.26-.45-5.07.57-7.18.87-2.07,2.37-3.57,4.25-4.63.48-.27,1.44-.82,1.89-.94.25-.07.54-.14.76-.19.93-.23,3.31-.34,4.35-.19.07.01.12.17.19.19,2.23.45,4.46,1.64,5.95,3.49.37.46.88,1.34,1.13,1.89,1.06,2.28,1.78,4.8,2.65,7.18.78,2.14,1.75,4.3,2.46,6.42.06.18-.03.42.19.66ZM65.31,147.71c0-2.83-2.29-5.12-5.12-5.12s-5.12,2.29-5.12,5.12,2.29,5.12,5.12,5.12,5.12-2.29,5.12-5.12Z"/>
    <path class="st4" d="M171.39,147.66c0,5.7-4.62,10.31-10.32,10.31s-10.32-4.62-10.32-10.31,4.62-10.31,10.32-10.31,10.32,4.62,10.32,10.31ZM166.18,147.68c0-2.83-2.29-5.12-5.12-5.12s-5.12,2.29-5.12,5.12,2.29,5.12,5.12,5.12,5.12-2.29,5.12-5.12Z"/>
    <path class="st4" d="M178.39,126.93v10.29l.28.28h4.82v4.34h-5.1v5.57c0,.06.18.12.19.19.04.29-.06.68,0,.94.01.07.32.45.38.57.04.09-.04.25,0,.38.03.09.29.25.38.38.03.05-.03.15,0,.19.2.28.95,1.02,1.23,1.23.13.1.8.51.94.57.39.16.92.12,1.32.19.07.01.31.33.66.19v5.1c-.52-.04-1.1.06-1.61,0-.19-.02-.9-.32-1.13-.38-3.29-.84-5.85-3.37-6.9-6.52-.23-.68-.25-.99-.38-1.7-.01-.07-.19-.13-.19-.19v-21.63h5.1Z"/>
    <rect class="st2" x="211.46" y="144.3" width="11.15" height="6.04"/>
    <path class="st1" d="M254.17,152.24v-20.21h4.44c.06,0,.12.18.19.19.7.06,1.04.06,1.7.19.59.12,1.16.14,1.7.38,2.71,1.2,5.19,3.83,5.95,6.71.18.68.11,1.35.19,2.08.02.22.27.56.19,1.13-.01.07-.18.12-.19.19-.05.42.06.92,0,1.32-.01.07-.17.12-.19.19-.7,3.51-3.11,6.14-6.52,7.27-.68.23-.99.25-1.7.38-.07.01-.13.19-.19.19h-5.57Z"/>
    <circle class="st0" cx="60.19" cy="147.71" r="5.12"/>
    <circle class="st3" cx="161.06" cy="147.68" r="5.12"/>
  </g>
  <g>
    <path class="st4" d="M199.94,74.61c-.04.46.05.97,0,1.42-.09.69-.52,2.1-.76,2.83-2.34,7.35-8.71,15.16-15.97,18.42-4.85,2.18-9.54,3.4-15.12,3.02-2.12-.14-4.59-.63-6.61-1.13-.08-.02-.12-.18-.19-.19-.39-.07-.91.05-1.32,0l-.66.85v15.49l-1.04,1.04h-48.57l-1.04-.85v-40.42c.43-3.95,1.27-7.63,2.65-11.33.03-.08.16-.11.19-.19.06-.16-.1-.42.19-.57l-.38-1.23c-.3.1-.4-.18-.47-.19-.2-.04-.97-.05-1.13,0-.1.03-.25.31-.38.38-.65.35-1.32.7-1.89,1.13-6.02,4.51-9.51,11.37-10.11,18.6v33.81l-1.04.85h-11.53l-1.04-1.04v-34.19c.6-7.56,2.87-14.4,7.56-20.78,4.02-5.47,9.2-9.6,15.4-12.37s12.51-3.77,19.46-3.02c.3.03,1.06.06,1.32,0,.1-.02.74-.46.94-.57,2.01-1.06,4.09-2.11,6.24-2.83,6.42-2.15,14.02-2.69,20.79-1.13,12.38,2.85,23.03,11.8,27.5,24.08,1.25,3.42,2.22,7.01,2.46,10.77.08,1.3-.06,2.66,0,3.97-.22.14-.69.81-.85.85s-.41-.04-.57,0c-.12.03-.33.12-.57.19-3.16.88-6.39,1.8-9.64,2.46-.07.01-.12.18-.19.19-1.03.15-1.34-.26-1.8-1.04-.12-2.03.16-4.23,0-6.23-.12-1.42-.59-3-.94-4.34-1.44-5.36-4.55-9.95-9.17-13.32-15.81-11.51-37.22-1.37-39.4,17.47v26.44l.85.85h10.77l.85-.85v-25.5c.18-.69.37-1.4.57-2.08,1.05-3.58,3.65-6.4,7.09-7.84.42-.17,1.3-.47,1.7-.57.85-.21,1.79-.18,2.65-.38.47-.11.68.18.76.19.46.07,1.04-.06,1.51,0,.19.02.9.32,1.13.38,3.63.93,6.1,3,7.84,6.33.19.37.66,1.18.76,1.51.1.35.11.95.19,1.32.06.28.35,1.08.38,1.32.23,2.2-.17,4.75,0,6.99.29.22.56.66.85.85.04.03.14-.03.19,0,1.45.86,3.12,1.34,4.72,1.89,6.48,2.19,12.79,2.97,19.46.76,5.48-1.82,9.27-4.71,12.94-9.35.56-.71,1.11-1.73,1.7-2.46.19-.23.49-.53.76-.66Z"/>
    <path class="st2" d="M183.02,101.81c.26-.04,1.31-.06,1.51,0,.26.07.48.68.66.85v12.84l-1.04.85h-11.34l-1.04-.85v-10.01l1.04-1.04c.33-.1.84-.11,1.13-.19,2.93-.79,5.88-1.67,8.88-2.27.07-.01.12-.18.19-.19Z"/>
  </g>
</svg>