<?xml version="1.0" encoding="UTF-8"?>
<svg id="mammoth-3D_Logo_Black_White_Image" data-name="mammoth-3D_Logo_Black_White Image" xmlns="http://www.w3.org/2000/svg" viewBox="0 0 409.04 213.54">
  <defs>
    <style>
      .cls-1 {
        fill: #fff;
      }
    </style>
  </defs>
  <path class="cls-1" d="M409.04,0v213.54H0V0h409.04ZM298.32,89.57c-2.11,2.42-3.82,5.15-5.95,7.56-14.44,16.36-36.96,17.48-55.96,8.53-1.63-.77-3.42-1.3-3.65-3.34-.87-7.75,1.66-12.6-3.62-19.81-10.57-14.44-34-7.92-35.12,9.97-.8,12.8.61,26.44.02,39.32-.07,1.53-1.04,2.57-2.56,2.73-5.07.54-11.18-.34-16.35-.08-1.12-.3-2.09-1.22-2.08-2.46.5-13.16-.64-26.78,0-39.89,1.22-24.84,24.37-42.73,48.79-37.63,17.45,3.64,30.93,19.18,31.9,37.07.14,2.63-.38,6.25,0,8.69.16,1.05,1.31,1.68,2.3,1.38,5.11-1.49,10.37-2.52,15.49-3.97,1.52-.43,3.2-.42,3.37-2.3.7-7.71-1.83-18.32-4.83-25.42-14.56-34.38-56.26-47.86-88.46-28.77-34.98-4.83-67.85,22.1-69.77,57.39l.09,56.05c.31.73.78.88,1.51.94,5.7.52,12.18-.41,17.96,0,1.05-.08,1.62-.98,1.61-1.98l-.02-53.87c.91-12.04,7.12-23.34,16.95-30.29,2.35-1.66,5.8-4.29,6.8.22-2.6,6.91-4.46,13.95-4.86,21.38l.09,63.42c.25.54.72,1.01,1.34,1.11l78.44-.14c.59-.18.92-.65,1-1.26.48-7.7-.67-16.23-.02-23.83.13-1.51.86-2.89,2.56-2.89.86,0,3.46.96,4.62,1.2,11.76,2.36,20.5,1.23,31.31-3.66,11.47-5.19,21.05-16.16,25.33-27.96.85-2.33,1.75-4.93,1.75-7.42ZM274.08,155.09c.28-.25.47-.78.45-1.16-.45-6.28.56-13.3,0-19.49-.13-1.43-.95-1.78-2.32-1.55-5.32,1.8-11.62,2.47-16.85,4.31-.99.35-1.49.63-1.62,1.78.34,4.68-.43,9.95,0,14.56.11,1.15.53,1.96,1.79,1.99,5.54-.4,11.75.5,17.21,0,.44-.04,1.02-.15,1.35-.45ZM242.21,163.46h-5.01l-.28.28v20.98c0,.45.39,1.95.56,2.46,1.29,3.93,5.63,7.13,9.83,6.89v-5.29c-1.94.08-3.78-1.1-4.61-2.85-.09-.2-.49-1.29-.49-1.4v-5.95h5.1v-4.54h-5.1v-10.58ZM254.49,175.18v-11.43l-.28-.28h-5.01v30.61h5.01l.28-.28v-10.77c0-.36.94-1.83,1.24-2.16,2.15-2.32,6.11-2.01,7.91.57.16.23.86,1.63.86,1.78v10.87h5.29v-11.24c0-.41-.44-1.75-.61-2.22-2.15-5.89-9.19-8.23-14.69-5.43ZM309.85,194.08h13.51c12.53,0,14.16-27.78-.19-27.78h-13.32v27.78ZM288.03,175.56h4.82c-.54-6.35,8.69-5.82,6.84.51-.59,2.03-3.37,2.21-5.14,2.13v3.97c2.1-.1,5,.05,5.81,2.41.76,2.22-.19,5.23-2.74,5.67-3.15.54-4.92-1.32-5-4.36l-.25-.32h-4.72l-.25.31c-.09,3.37,1.45,6.78,4.7,8.09,2.71,1.1,6.36,1.09,9.06,0,5.66-2.29,7.33-11.46,1.33-14.27-.05-.26-.04-.24.12-.39,1.36-1.28,2.48-1.92,2.71-4.05,1.19-10.68-15.9-12.02-17.36-1.49-.05.39-.3,1.67.07,1.77ZM111.85,194.08v-10.49c0-1.31-.92-3.66-1.62-4.8-3.42-5.54-11.57-6.51-16.04-1.72-4.38-4.39-11.57-4.03-15.49.76-.82,1.01-2.17,3.55-2.17,4.82v11.43h5.29v-11.06c0-.18.59-1.28.76-1.51,1.72-2.38,5.03-3,7.37-1.14.64.51,1.89,2.03,1.89,2.84v10.87h5.29v-12.38c0-.1,1.02-1.26,1.23-1.42,2.43-1.87,6.52-1,7.75,1.89.1.24.47,1.45.47,1.61v10.3h5.29ZM138.3,194.08c-1.48-4.28-2.84-8.91-4.58-13.09-5.2-12.41-22.14-6.63-19.93,5.38,1.29,7,9.57,10.7,15.61,6.84.68-.43,1.87-1.83,2.19-1.97.3-.13.26.11.32.24.36.72.61,1.82.9,2.6h5.48ZM175.52,194.08v-11.62c0-1.1-1.44-3.74-2.17-4.63-3.93-4.8-11.11-5.15-15.49-.76-4.46-4.8-12.64-3.79-16.04,1.72-.7,1.14-1.62,3.49-1.62,4.8v10.49h5.29v-10.3c0-.14.31-1.07.4-1.3,1.51-3.84,6.73-4.33,8.98-.9.24.37.83,1.45.83,1.82v10.68h5.29v-12.38c0-.2,1.08-1.33,1.32-1.52,1.83-1.4,4.88-1.12,6.52.48.35.34,1.42,1.95,1.42,2.36v11.06h5.29ZM212.74,194.08v-10.68c0-.85-.69-3.01-1.1-3.81-3.11-6.16-11.82-7.59-16.56-2.52-4.85-5.01-13.61-3.69-16.67,2.61-.26.54-1,2.48-1,2.97v11.43h5.29v-10.87c0-.11.51-1.24.63-1.44,1.36-2.25,4.36-3.18,6.72-1.95.77.4,2.66,2.36,2.66,3.2v10.77l.28.28h5.01v-12.38c0-.1,1.02-1.26,1.23-1.42,2.48-1.91,6.45-.99,7.75,1.89.08.18.47,1.34.47,1.42v10.49h5.29ZM235.17,184.33c0-5.73-4.64-10.37-10.37-10.37s-10.37,4.64-10.37,10.37,4.64,10.37,10.37,10.37,10.37-4.64,10.37-10.37ZM286.04,180.66h-10.96v5.29h10.96v-5.29Z"/>
  <g>
    <path d="M309.85,194.08v-27.78h13.32c14.35,0,12.72,27.78.19,27.78h-13.51ZM315.52,189.17h6.52c1.16,0,2.98-1.46,3.65-2.39,2.28-3.15,2.71-12.72-1.04-14.77-.36-.2-2.1-.79-2.43-.79h-6.71v17.95Z"/>
    <path d="M111.85,194.08h-5.29v-10.3c0-.16-.37-1.37-.47-1.61-1.23-2.89-5.31-3.76-7.75-1.89-.21.16-1.23,1.32-1.23,1.42v12.38h-5.29v-10.87c0-.81-1.25-2.33-1.89-2.84-2.34-1.86-5.65-1.24-7.37,1.14-.17.24-.76,1.33-.76,1.51v11.06h-5.29v-11.43c0-1.27,1.35-3.81,2.17-4.82,3.93-4.8,11.11-5.15,15.49-.76,4.48-4.79,12.62-3.82,16.04,1.72.7,1.14,1.62,3.49,1.62,4.8v10.49Z"/>
    <path d="M212.74,194.08h-5.29v-10.49c0-.07-.39-1.24-.47-1.42-1.29-2.88-5.26-3.8-7.75-1.89-.21.16-1.23,1.32-1.23,1.42v12.38h-5.01l-.28-.28v-10.77c0-.84-1.89-2.8-2.66-3.2-2.36-1.23-5.36-.3-6.72,1.95-.12.2-.63,1.33-.63,1.44v10.87h-5.29v-11.43c0-.48.74-2.43,1-2.97,3.06-6.3,11.82-7.62,16.67-2.61,4.74-5.07,13.45-3.64,16.56,2.52.41.81,1.1,2.97,1.1,3.81v10.68Z"/>
    <path d="M175.52,194.08h-5.29v-11.06c0-.41-1.07-2.02-1.42-2.36-1.64-1.6-4.69-1.88-6.52-.48-.24.18-1.32,1.31-1.32,1.52v12.38h-5.29v-10.68c0-.37-.58-1.45-.83-1.82-2.24-3.43-7.47-2.94-8.98.9-.09.23-.4,1.16-.4,1.3v10.3h-5.29v-10.49c0-1.31.92-3.66,1.62-4.8,3.41-5.51,11.58-6.52,16.04-1.72,4.38-4.39,11.57-4.03,15.49.76.73.9,2.17,3.54,2.17,4.63v11.62Z"/>
    <path d="M254.49,175.18c5.5-2.8,12.54-.46,14.69,5.43.17.47.61,1.81.61,2.22v11.24h-5.29v-10.87c0-.15-.7-1.56-.86-1.78-1.8-2.57-5.76-2.89-7.91-.57-.3.33-1.24,1.8-1.24,2.16v10.77l-.28.28h-5.01v-30.61h5.01l.28.28v11.43Z"/>
    <path d="M138.3,194.08h-5.48c-.29-.78-.54-1.88-.9-2.6-.07-.13-.02-.37-.32-.24-.32.14-1.51,1.53-2.19,1.97-6.04,3.86-14.32.16-15.61-6.84-2.22-12.02,14.73-17.79,19.93-5.38,1.75,4.17,3.1,8.81,4.58,13.09ZM129.02,184.37c0-2.8-2.27-5.07-5.07-5.07s-5.07,2.27-5.07,5.07,2.27,5.07,5.07,5.07,5.07-2.27,5.07-5.07Z"/>
    <path d="M288.03,175.56c-.37-.1-.12-1.38-.07-1.77,1.46-10.53,18.55-9.19,17.36,1.49-.24,2.13-1.36,2.76-2.71,4.05-.16.15-.17.13-.12.39,6,2.8,4.33,11.98-1.33,14.27-2.7,1.09-6.35,1.1-9.06,0-3.25-1.32-4.79-4.73-4.7-8.09l.25-.31h4.72l.25.32c.07,3.04,1.85,4.9,5,4.36,2.55-.44,3.49-3.45,2.74-5.67-.8-2.36-3.71-2.51-5.81-2.41v-3.97c1.78.08,4.55-.1,5.14-2.13,1.85-6.34-7.38-6.87-6.84-.51h-4.82Z"/>
    <path d="M235.17,184.33c0,5.73-4.64,10.37-10.37,10.37s-10.37-4.64-10.37-10.37,4.64-10.37,10.37-10.37,10.37,4.64,10.37,10.37ZM229.85,184.32c0-2.79-2.26-5.05-5.05-5.05s-5.05,2.26-5.05,5.05,2.26,5.05,5.05,5.05,5.05-2.26,5.05-5.05Z"/>
    <path d="M242.21,163.46v10.58h5.1v4.54h-5.1v5.95c0,.11.4,1.2.49,1.4.83,1.76,2.67,2.93,4.61,2.85v5.29c-4.2.24-8.54-2.96-9.83-6.89-.17-.51-.56-2.01-.56-2.46v-20.98l.28-.28h5.01Z"/>
    <rect x="275.09" y="180.66" width="10.96" height="5.29"/>
    <path class="cls-1" d="M315.52,189.17v-17.95h6.71c.32,0,2.07.59,2.43.79,3.74,2.05,3.32,11.62,1.04,14.77-.67.93-2.49,2.39-3.65,2.39h-6.52Z"/>
    <circle class="cls-1" cx="123.95" cy="184.37" r="5.07"/>
    <circle class="cls-1" cx="224.8" cy="184.32" r="5.05"/>
  </g>
  <g>
    <path d="M298.32,89.57c0,2.48-.9,5.09-1.75,7.42-4.29,11.8-13.86,22.77-25.33,27.96-10.81,4.89-19.55,6.02-31.31,3.66-1.17-.23-3.77-1.2-4.62-1.2-1.7,0-2.43,1.38-2.56,2.89-.65,7.6.5,16.13.02,23.83-.08.61-.41,1.08-1,1.26l-78.44.14c-.62-.1-1.09-.58-1.34-1.11l-.09-63.42c.4-7.43,2.25-14.47,4.86-21.38-1-4.51-4.45-1.88-6.8-.22-9.84,6.95-16.05,18.25-16.95,30.29l.02,53.87c0,1-.55,1.91-1.61,1.98-5.79-.4-12.26.52-17.96,0-.73-.07-1.21-.21-1.51-.94l-.09-56.05c1.92-35.29,34.79-62.22,69.77-57.39,32.2-19.08,73.9-5.61,88.46,28.77,3.01,7.1,5.54,17.71,4.83,25.42-.17,1.88-1.85,1.87-3.37,2.3-5.12,1.46-10.38,2.48-15.49,3.97-.99.29-2.14-.33-2.3-1.38-.39-2.44.14-6.06,0-8.69-.97-17.89-14.45-33.42-31.9-37.07-24.41-5.1-47.57,12.8-48.79,37.63-.64,13.11.5,26.73,0,39.89-.02,1.24.95,2.16,2.08,2.46,5.17-.25,11.28.63,16.35.08,1.52-.16,2.49-1.21,2.56-2.73.6-12.89-.82-26.52-.02-39.32,1.12-17.9,24.55-24.42,35.12-9.97,5.28,7.22,2.75,12.06,3.62,19.81.23,2.04,2.02,2.57,3.65,3.34,19,8.94,41.52,7.83,55.96-8.53,2.12-2.41,3.84-5.14,5.95-7.56Z"/>
    <path d="M274.08,155.09c-.33.3-.91.41-1.35.45-5.46.5-11.67-.4-17.21,0-1.27-.03-1.69-.83-1.79-1.99-.43-4.61.34-9.88,0-14.56.14-1.15.63-1.43,1.62-1.78,5.23-1.84,11.53-2.51,16.85-4.31,1.37-.23,2.19.12,2.32,1.55.56,6.18-.45,13.21,0,19.49.02.38-.17.9-.45,1.16Z"/>
  </g>
</svg>