<?xml version="1.0" encoding="UTF-8"?><svg id="_0" xmlns="http://www.w3.org/2000/svg" viewBox="0 0 1638.35 1080.71"><defs><style>.cls-1{fill:none;stroke:#000;stroke-linecap:round;stroke-linejoin:round;stroke-width:.71px;}</style></defs><g id="POLYLINE"><path class="cls-1" d="M1429.08,896.35c0-8.17-6.62-14.79-14.79-14.79-1.24,0-2.47.16-3.67.46l-152.35,39.06c-6.54,1.68-11.12,7.57-11.12,14.33v129.84c0,8.17,6.62,14.79,14.79,14.79h152.39c8.17,0,14.79-6.62,14.79-14.79,0,0,0,0,0,0,0,0-.04-168.91-.04-168.91Z"/></g><g id="POLYLINE-2"><path class="cls-1" d="M.35,1065.56v-451.58c0-21.67,1.3-43.32,3.9-64.84C40.06,252.59,309.5,41.22,606.05,77.03c4.81.58,9.68-.43,13.86-2.87C706.32,23.63,805.09-1.87,905.17.51c297.98,7.09,533.78,254.4,526.69,552.37-.16,6.62-4.69,12.33-11.11,13.97l-155.14,39.83c-1.2.31-2.44.46-3.68.46-8.17,0-14.79-6.62-14.79-14.79v-52.32c0-195.96-158.86-354.82-354.81-354.82h0c-195.96,0-354.82,158.86-354.82,354.81h0v334.34c0,12.25,9.93,22.18,22.18,22.18h140.5c12.25,0,22.18-9.93,22.18-22.18v-334.34c0-93.86,76.09-169.95,169.95-169.95s169.95,76.09,169.95,169.95v73.96c0,8.37,4.71,16.02,12.17,19.8l2,1.01,2.02,1,2.03,1,2.05.99,2.06.99,2.07.98,2.09.97,2.1.97,2.11.96,2.13.96,2.14.95,2.15.95,2.17.94,2.18.93,2.19.93,2.21.92,2.22.92,2.23.91,2.25.9,2.26.9,2.27.89,2.29.89,2.3.88,2.31.87,2.33.87,2.34.86,2.35.85,2.37.85,2.38.84,2.39.84,2.4.83,2.42.82,2.43.81,2.44.81,2.45.8,2.47.79,2.48.79,2.49.78,2.5.77,2.51.76,2.52.75,2.53.75,2.55.74,2.56.73,2.57.72,2.58.71,2.59.7,2.6.69,2.61.68,2.62.67,2.63.66,2.64.65,2.65.64,2.65.63,2.66.62,2.67.61,2.68.6,2.69.59,2.69.57,2.7.56,2.71.55,2.71.54,2.72.52,2.72.51,2.73.5,2.74.48,2.74.47,2.74.46,2.75.44,2.75.43,2.76.41,2.76.4,2.76.38,2.76.36,2.77.35,2.77.33,2.77.32,2.77.3,2.77.28,2.77.26,2.77.25,2.77.23,2.77.21,2.77.19,2.77.17,2.77.16,2.77.14,2.77.12,2.77.1,2.76.08,2.76.06,2.76.04,2.75.02h2.75s2.75-.02,2.75-.02l2.74-.04,2.74-.06,2.73-.08,2.73-.1,2.72-.12,2.72-.14,2.71-.16,2.71-.18,2.7-.2,2.7-.22,2.69-.24,2.69-.26,2.68-.28,2.67-.3,2.67-.32,2.66-.34,2.65-.36,2.65-.38,2.64-.4,2.63-.42,2.63-.44,2.62-.46,2.61-.47,2.61-.49,2.6-.51,2.59-.53,2.58-.55,2.58-.57,2.57-.58,2.56-.6,2.56-.62,2.55-.64,2.54-.65,2.53-.67,2.53-.69,2.52-.71,2.51-.72,2.51-.74,2.5-.76,2.49-.77,2.48-.79,2.48-.8,2.47-.82,2.46-.84,2.45-.85,2.45-.87,2.44-.88,2.43-.9,2.43-.91,2.42-.93,2.41-.94,2.41-.96,2.4-.97,2.39-.99,2.38-1,2.38-1.02,2.37-1.03,2.36-1.05,2.35-1.06,2.35-1.08,2.34-1.09,2.33-1.11,2.33-1.12,2.32-1.14,2.31-1.15,2.3-1.17,2.3-1.19,2.29-1.2,2.28-1.22,2.27-1.23,2.26-1.25,2.26-1.27,2.25-1.28,2.24-1.3,2.23-1.32,2.22-1.33,2.21-1.35,2.2-1.37,2.2-1.39,2.19-1.4,2.18-1.42,2.17-1.44,2.16-1.46,2.15-1.47,2.14-1.49,2.13-1.51,2.12-1.53,2.11-1.54,2.1-1.56,2.08-1.58,2.07-1.6,2.06-1.62,2.05-1.63,2.04-1.65,2.03-1.67,2.01-1.68,2-1.7,1.99-1.72,1.97-1.73,1.96-1.75,1.95-1.76,1.93-1.78,1.92-1.79,1.91-1.8,1.89-1.82,1.88-1.83,1.86-1.84,1.85-1.85,1.83-1.87,1.81-1.87,1.8-1.88,1.78-1.89,1.76-1.9,1.75-1.9,1.73-1.91,1.71-1.91,1.7-1.91,1.68-1.92,1.66-1.92,1.64-1.92,1.62-1.92,1.6-1.91,1.58-1.91,1.56-1.9,1.54-1.9,1.52-1.89,1.5-1.88,1.48-1.87,1.46-1.85,1.44-1.84,1.42-1.83,1.39-1.81,1.37-1.79,1.35-1.77,1.33-1.75,1.3-1.73,1.28-1.71,1.26-1.68,1.23-1.66,1.21-1.63,1.19-1.6,1.16-1.57,1.14-1.54,1.11-1.51,1.09-1.48,1.06-1.44,1.04-1.41,1.01-1.37.5-.67.49-.66.48-.65.48-.64.47-.63.46-.62.46-.61.45-.6.44-.59.44-.58.43-.57.42-.56.42-.55.41-.54.4-.53.4-.52.39-.51.38-.5.38-.49.37-.47.36-.46.35-.45.35-.44.34-.43.33-.42.33-.41-.02.81-.03.82-.04.83-.05.84-.06.85-.07.86-.08.87-.09.88-.1.89-.1.9-.11.91-.12.92-.13.93-.14.94-.15.95-.16.96-.17.97-.17.98-.18.99-.19,1-.2,1.01-.21,1.02-.22,1.03-.22,1.04-.23,1.05-.24,1.06-.25,1.06-.26,1.07-.26,1.08-.27,1.09-.57,2.2-.6,2.23-.63,2.26-.65,2.28-.68,2.3-.7,2.33-.73,2.34-.75,2.36-.77,2.38-.79,2.39-.81,2.4-.83,2.41-.85,2.42-.87,2.42-.88,2.43-.9,2.43-.91,2.43-.92,2.43-.93,2.42-.95,2.42-.96,2.41-.97,2.41-.98,2.4-.99,2.39-1,2.39-1.01,2.38-1.03,2.37-1.04,2.36-1.05,2.35-1.06,2.35-1.08,2.34-1.1,2.34-1.11,2.33-1.13,2.33-1.15,2.33-1.17,2.33-1.19,2.33-1.22,2.33-1.24,2.34-1.27,2.35-1.3,2.35-1.32,2.36-1.35,2.37-1.38,2.38-1.42,2.39-1.45,2.41-1.48,2.42-1.52,2.44-1.55,2.45-1.59,2.47-1.63,2.49-1.67,2.51-1.7,2.53-1.74,2.54-1.78,2.56-1.81,2.58-1.85,2.59-1.88,2.61-1.92,2.62-1.95,2.63-1.99,2.65-2.02,2.66-2.05,2.67-2.08,2.67-2.11,2.68-2.14,2.68-2.17,2.68-2.19,2.68-2.22,2.68-2.24,2.68-2.26,2.67-2.28,2.66-2.3,2.65-2.32,2.64-2.33,2.63-2.35,2.61-2.36,2.6-2.37,2.58-2.38,2.56-2.39,2.53-2.4,2.51-2.41,2.48-2.42,2.46-2.42,2.43-2.43,2.4-2.43,2.36-2.44,2.33-2.44,2.3-2.44,2.27-2.45,2.23-2.45,2.2-2.46,2.17-2.46,2.13-2.47,2.1-2.47,2.06-2.48,2.03-2.49,1.99-2.5,1.96-2.5,1.92-2.51,1.89-2.52,1.86-2.53,1.83-2.55,1.8-2.56,1.77-2.57,1.74-2.59,1.72-2.6,1.69-2.62,1.66-2.63,1.64-2.65,1.61-2.67,1.59-2.69,1.56-2.71,1.54-2.73,1.52-2.74,1.5-2.76,1.48-2.78,1.46-2.8,1.44-2.82,1.43-2.83,1.41-2.85,1.39-2.87,1.38-2.88,1.36-2.9,1.34-2.91,1.33-2.92,1.31-2.93,1.3-2.93,1.28-2.94,1.26-2.94,1.25-2.95,1.23-2.95,1.21-2.95,1.2-2.94,1.18-2.94,1.17-2.93,1.15-2.92,1.13-2.91,1.11-2.9,1.09-2.89,1.08-2.87,1.06-2.86,1.04-2.84,1.02-2.82,1-2.8.98-2.78.96-2.75.94-2.73.91-2.71.89-2.68.87-2.66.85-2.63.83-2.61.8-2.59.78-2.57.76-2.54.73-2.52.71-2.5.69-2.48.66-2.46.64-2.45.61-2.43.59-2.42.57-2.41.54-2.4.52-2.39.5-2.39.47-2.38.45-2.38.43-2.38.4-2.39.38-2.39.36-2.39.33-2.4.31-2.41.29-2.42.27-2.43.25-2.44.23-2.45.21-2.46.18-2.48.16-2.49.14-2.51.13-2.52.11-2.54.09-2.55.07-2.56.05-2.58.03-2.59.02h-2.6s-2.62-.02-2.62-.02l-2.63-.03-2.64-.05-2.65-.06-2.66-.08-2.67-.09-2.67-.11-2.68-.12-2.68-.13-2.69-.15-2.69-.16-2.69-.17-2.69-.18-2.69-.19-2.69-.21-2.69-.22-2.68-.23-2.68-.24-2.67-.25-2.67-.26-2.66-.27-2.65-.28-2.64-.29-2.63-.3-2.61-.31-2.6-.31-2.59-.32-2.57-.33-2.56-.34-2.54-.35-2.52-.36-2.5-.37-2.48-.38-2.46-.38-2.44-.39-2.42-.4-2.4-.41-2.38-.42-2.35-.43-2.33-.43-2.31-.44-2.28-.45-2.26-.46-2.23-.47-2.21-.48-2.18-.48-2.16-.49-2.13-.5-2.1-.51-2.08-.52-2.05-.52-.38-.12-.38-.12-.38-.12-.38-.12-.38-.12-.38-.12-.38-.12-.38-.12-.38-.12-.38-.12-.38-.12-.38-.12-.38-.12-.38-.12-.38-.12-.38-.12-.76-.24-.76-.25-.75-.25-.75-.25-.75-.25-.75-.25-.75-.25-.75-.25c-11.63-3.86-24.18,2.43-28.05,14.06-.75,2.25-1.13,4.62-1.13,6.99v209.59c0,8.17-6.62,14.79-14.79,14.79H367.43c-8.17,0-14.79-6.62-14.79-14.79v-525.23c0-70.64,13.87-140.59,40.81-205.88,4.67-11.33-.72-24.3-12.04-28.97-6.4-2.64-13.67-2.14-19.65,1.35-109.33,63.81-176.55,180.87-176.55,307.45v451.55c0,8.17-6.62,14.79-14.79,14.79l-155.29.03s0,0,0,0c-8.17,0-14.79-6.62-14.79-14.79Z"/></g><g id="POLYLINE-3"><path class="cls-1" d="M1419.4,672.19c.02-.07.03-.13.05-.2"/></g><g id="POLYLINE-4"><line class="cls-1" x1="1243.45" y1="683.46" x2="1243.45" y2="683.72"/></g><g id="POLYLINE-5"><path class="cls-1" d="M1215,678.49c.03-.07.06-.14.09-.21"/></g><g id="POLYLINE-6"><path class="cls-1" d="M1085.36,635.04s0-.08,0-.12"/></g><g id="POLYLINE-7"><path class="cls-1" d="M1347.54,836.76c.24-.37.48-.74.72-1.11"/></g><g id="POLYLINE-8"><line class="cls-1" x1="1243.45" y1="856.99" x2="1243.45" y2="857.41"/></g></svg>