<?xml version="1.0" encoding="UTF-8"?>
<svg id="_0" data-name=" 0" xmlns="http://www.w3.org/2000/svg" viewBox="0 0 1500 843.79">
  <defs>
    <style>
      .cls-1 {
        font-family: Moderna, moderna;
      }

      .cls-2 {
        font-size: 205.03px;
      }

      .cls-3 {
        fill: none;
        stroke: #000;
        stroke-linecap: round;
        stroke-linejoin: round;
        stroke-width: .71px;
      }

      .cls-4 {
        font-family: Helvetica-Bold, Helvetica;
        font-weight: 700;
      }
    </style>
  </defs>
  <g id="POLYLINE">
    <path class="cls-3" d="M1075.11,459.62c0-4.19-3.39-7.58-7.58-7.58-.64,0-1.27.08-1.88.24l-78.09,20.02c-3.35.86-5.7,3.88-5.7,7.35v66.55c0,4.19,3.39,7.58,7.58,7.58h78.11c4.19,0,7.58-3.39,7.58-7.58h0l-.02-86.58h0Z"/>
  </g>
  <g id="POLYLINE-2">
    <path class="cls-3" d="M342.78,546.35v-231.47c0-11.11.67-22.2,2-33.24,18.36-152,156.46-260.35,308.47-241.99,2.47.3,4.96-.22,7.1-1.47C704.64,12.28,755.27-.79,806.57.43c152.74,3.63,273.6,130.4,269.97,283.13-.08,3.39-2.4,6.32-5.69,7.16l-79.52,20.42c-.62.16-1.25.24-1.89.24-4.19,0-7.58-3.39-7.58-7.58v-26.82c0-100.44-81.43-181.87-181.87-181.87h0c-100.44,0-181.87,81.43-181.87,181.87h0v171.37c0,6.28,5.09,11.37,11.37,11.37h72.02c6.28,0,11.37-5.09,11.37-11.37v-171.37c0-48.11,39-87.11,87.11-87.11s87.11,39,87.11,87.11v37.91c0,4.29,2.41,8.21,6.24,10.15l1.03.52,1.04.51,1.04.51,1.05.51,1.06.51,1.06.5,1.07.5,1.08.5,1.08.49,1.09.49,1.1.49,1.1.49,1.11.48,1.12.48,1.12.48,1.13.47,1.14.47,1.14.47,1.15.46,1.16.46,1.16.46,1.17.46,1.18.45,1.18.45,1.19.45,1.2.44,1.2.44,1.21.44,1.22.43,1.23.43,1.23.43,1.24.42,1.25.42,1.25.42,1.26.41,1.27.4,1.27.4,1.28.4,1.28.39,1.29.39,1.29.38,1.3.38,1.31.38,1.31.37,1.32.37,1.32.36,1.33.36,1.33.35,1.34.35,1.34.34,1.35.34,1.35.33,1.36.33,1.36.32,1.36.32,1.37.31,1.37.31,1.38.3,1.38.29,1.38.29,1.39.28,1.39.28,1.39.27,1.39.26,1.4.26,1.4.25,1.4.24,1.4.24,1.41.23,1.41.22,1.41.21,1.41.21,1.41.19,1.41.18,1.42.18,1.42.17,1.42.16,1.42.15,1.42.14,1.42.13,1.42.13,1.42.12,1.42.11,1.42.1,1.42.09,1.42.08,1.42.07,1.42.06,1.42.05,1.41.04,1.41.03,1.41.02h1.41s1.41.01,1.41.01h1.41s1.4-.03,1.4-.03l1.4-.03,1.4-.04,1.4-.05,1.39-.06,1.39-.07,1.39-.08,1.39-.09,1.38-.1,1.38-.11,1.38-.12,1.38-.13,1.37-.14,1.37-.15,1.37-.16,1.36-.17,1.36-.18,1.36-.19,1.35-.21,1.35-.22,1.35-.23,1.34-.24,1.34-.24,1.34-.25,1.33-.26,1.33-.27,1.32-.28,1.32-.29,1.32-.3,1.31-.31,1.31-.32,1.31-.33,1.3-.33,1.3-.34,1.3-.35,1.29-.36,1.29-.37,1.29-.38,1.28-.39,1.28-.39,1.27-.4,1.27-.41,1.27-.42,1.26-.43,1.26-.44,1.26-.45,1.25-.45,1.25-.46,1.25-.47,1.24-.48,1.24-.48,1.24-.49,1.23-.5,1.23-.51,1.22-.51,1.22-.52,1.21-.53,1.21-.54,1.2-.54,1.2-.55,1.2-.56,1.19-.57,1.19-.57,1.19-.58,1.18-.59,1.18-.6,1.18-.61,1.17-.62,1.17-.63,1.16-.63,1.16-.64,1.16-.65,1.15-.66,1.15-.67,1.14-.68,1.14-.68,1.13-.69,1.13-.7,1.13-.71,1.12-.72,1.12-.73,1.11-.74,1.11-.75,1.1-.75,1.1-.76,1.09-.77,1.09-.78,1.08-.79,1.08-.8,1.07-.81,1.06-.82,1.06-.83,1.05-.84,1.05-.85,1.04-.86,1.03-.86,1.03-.87,1.02-.88,1.01-.89,1-.9,1-.9.99-.91.98-.92.98-.92.97-.93.96-.94.95-.94.95-.95.94-.96.93-.96.92-.96.91-.97.9-.97.9-.97.89-.98.88-.98.87-.98.86-.98.85-.98.84-.98.83-.98.82-.98.81-.98.8-.97.79-.97.78-.97.77-.96.76-.96.75-.95.74-.94.73-.94.71-.93.7-.92.69-.91.68-.9.67-.89.66-.88.65-.86.63-.85.62-.84.61-.82.59-.8.58-.79.57-.77.56-.76.54-.74.53-.72.52-.7.26-.34.25-.34.25-.33.25-.33.24-.32.24-.32.24-.31.23-.31.23-.3.23-.3.22-.29.22-.29.22-.28.21-.28.21-.27.21-.27.2-.26.19-.26.19-.25.19-.24.18-.24.18-.23.18-.23.17-.22.17-.22.17-.21v.42s-.03.42-.03.42l-.02.43-.03.43-.03.44-.04.44-.04.45-.05.45-.05.46-.05.46-.06.47-.06.47-.07.48-.07.48-.08.49-.08.49-.09.5-.09.5-.09.51-.1.51-.1.52-.11.52-.11.53-.11.53-.12.54-.12.54-.13.54-.13.55-.13.55-.14.56-.29,1.13-.31,1.14-.32,1.16-.33,1.17-.35,1.18-.36,1.19-.37,1.2-.38,1.21-.39,1.22-.4,1.23-.42,1.23-.43,1.24-.44,1.24-.45,1.24-.45,1.25-.46,1.25-.47,1.25-.47,1.25-.48,1.24-.49,1.24-.49,1.24-.5,1.24-.5,1.23-.51,1.23-.51,1.23-.52,1.22-.53,1.21-.53,1.21-.54,1.2-.54,1.2-.55,1.2-.56,1.2-.57,1.19-.58,1.19-.59,1.19-.6,1.19-.61,1.19-.63,1.19-.64,1.2-.65,1.2-.67,1.2-.68,1.21-.69,1.21-.71,1.22-.73,1.23-.74,1.24-.76,1.24-.78,1.25-.79,1.26-.81,1.27-.84,1.28-.86,1.29-.87,1.3-.89,1.3-.91,1.31-.93,1.32-.95,1.33-.96,1.34-.98,1.34-1,1.35-1.02,1.36-1.04,1.36-1.05,1.37-1.07,1.37-1.08,1.37-1.1,1.37-1.11,1.37-1.12,1.37-1.14,1.37-1.15,1.37-1.16,1.37-1.17,1.36-1.18,1.36-1.19,1.35-1.19,1.35-1.2,1.34-1.21,1.33-1.21,1.32-1.22,1.31-1.23,1.3-1.23,1.29-1.24,1.27-1.24,1.26-1.24,1.25-1.25,1.23-1.25,1.21-1.25,1.19-1.25,1.18-1.25,1.16-1.26,1.14-1.26,1.13-1.26,1.11-1.26,1.09-1.27,1.08-1.27,1.06-1.27,1.04-1.28,1.02-1.28,1-1.28.98-1.29.97-1.29.95-1.3.94-1.31.92-1.31.91-1.32.89-1.33.88-1.33.87-1.34.85-1.35.84-1.36.83-1.37.82-1.38.8-1.39.79-1.4.78-1.4.77-1.41.76-1.42.75-1.44.74-1.45.73-1.45.72-1.46.71-1.47.71-1.48.7-1.49.69-1.49.68-1.5.67-1.5.67-1.5.66-1.51.65-1.51.64-1.51.63-1.51.62-1.51.62-1.51.6-1.51.6-1.5.59-1.5.58-1.49.57-1.49.56-1.48.55-1.47.54-1.47.53-1.46.52-1.45.51-1.44.5-1.42.49-1.41.48-1.4.47-1.39.46-1.37.45-1.36.44-1.35.43-1.34.41-1.33.4-1.32.39-1.3.37-1.29.36-1.28.35-1.27.34-1.26.33-1.26.31-1.25.3-1.24.29-1.24.28-1.23.27-1.23.26-1.23.24-1.22.23-1.22.22-1.22.21-1.23.19-1.23.18-1.23.17-1.23.16-1.24.15-1.24.14-1.25.13-1.25.12-1.26.11-1.26.09-1.27.08-1.28.07-1.29.07-1.29.06-1.3.05-1.31.04-1.31.03-1.32.02h-1.33s-1.33.01-1.33.01h-1.34s-1.35-.03-1.35-.03l-1.35-.03-1.36-.03-1.36-.04-1.37-.05-1.37-.06-1.37-.06-1.37-.07-1.38-.08-1.38-.08-1.38-.09-1.38-.09-1.38-.1-1.38-.11-1.38-.11-1.37-.12-1.37-.12-1.37-.13-1.37-.13-1.36-.14-1.36-.14-1.35-.15-1.35-.15-1.34-.16-1.33-.16-1.33-.16-1.32-.17-1.31-.17-1.3-.18-1.29-.18-1.28-.19-1.27-.19-1.26-.19-1.25-.2-1.24-.21-1.23-.21-1.22-.22-1.2-.22-1.19-.22-1.18-.23-1.17-.23-1.16-.24-1.14-.24-1.13-.25-1.12-.25-1.11-.25-1.09-.26-1.08-.26-1.07-.27-1.05-.27-.19-.06-.19-.06-.19-.06-.19-.06-.19-.06-.19-.06-.19-.06-.19-.06-.19-.06-.19-.06-.19-.06-.19-.06-.19-.06-.19-.06-.19-.06-.19-.06-.39-.12-.39-.13-.38-.13-.38-.13-.38-.13-.38-.13-.38-.13-.38-.13c-5.96-1.98-12.39,1.25-14.38,7.21-.38,1.15-.58,2.37-.58,3.58v107.43c0,4.19-3.39,7.58-7.58,7.58h-348.63c-4.19,0-7.58-3.39-7.58-7.58v-269.22c0-36.21,7.11-72.06,20.92-105.53,2.39-5.81-.37-12.46-6.17-14.85-3.28-1.35-7.01-1.1-10.07.69-56.04,32.71-90.5,92.71-90.5,157.59v231.45c0,4.19-3.39,7.58-7.58,7.58l-79.6.02h0c-4.19,0-7.58-3.39-7.58-7.58v.04Z"/>
  </g>
  <g id="POLYLINE-3">
    <path class="cls-3" d="M1070.15,344.72s.02-.07.03-.1"/>
  </g>
  <g id="POLYLINE-4">
    <line class="cls-3" x1="979.97" y1="350.5" x2="979.97" y2="350.63"/>
  </g>
  <g id="POLYLINE-5">
    <path class="cls-3" d="M965.38,347.95s.03-.07.05-.11"/>
  </g>
  <g id="POLYLINE-6">
    <path class="cls-3" d="M898.93,325.68v-.06"/>
  </g>
  <g id="POLYLINE-7">
    <path class="cls-3" d="M1033.32,429.08l.37-.57"/>
  </g>
  <g id="POLYLINE-8">
    <line class="cls-3" x1="979.97" y1="439.45" x2="979.97" y2="439.66"/>
  </g>
  <text class="cls-2" transform="translate(50.2 745.18)"><tspan class="cls-1" x="0" y="0">mammoth</tspan><tspan class="cls-4" x="1069.22" y="0">-3D</tspan></text>
</svg>